<?xml version="1.0" standalone="no"?>
<!DOCTYPE svg PUBLIC "-//W3C//DTD SVG 1.1//EN" "http://www.w3.org/Graphics/SVG/1.1/DTD/svg11.dtd" >
<svg>
<metadata>
Created by FontForge 20120731 at Sat Jun 29 13:37:17 2019
 By www
HTF Gotham  Copr. 2003 The Hoefler Type Foundry, Inc. Info: www.typography.com
</metadata>
<defs>
<font id="Gotham-Black" horiz-adv-x="500" >
  <font-face 
    font-family="Gotham"
    font-weight="400"
    font-stretch="normal"
    units-per-em="1000"
    panose-1="2 0 6 4 4 0 0 2 0 4"
    ascent="800"
    descent="-200"
    x-height="541"
    cap-height="700"
    bbox="-73 -173 1260 932"
    underline-thickness="20"
    underline-position="-113"
    unicode-range="U+0020-FB02"
  />
<missing-glyph 
 />
    <glyph glyph-name=".notdef" 
 />
    <glyph glyph-name="glyph1" horiz-adv-x="0" 
 />
    <glyph glyph-name="Eth" unicode="&#xd0;" horiz-adv-x="815" 
d="M111 276h-80v153h80v271h270q184 0 291 -97q104 -94 104 -249v-2q0 -155 -105 -252q-109 -100 -294 -100h-266v276zM384 167q193 0 193 182v2q0 182 -193 182h-85v-104h119v-153h-119v-109h85z" />
    <glyph glyph-name="eth" unicode="&#xf0;" horiz-adv-x="656" 
d="M113 63q-81 74 -81 186v2q0 97 65 160q66 66 173 66q64 0 108 -27l-80 107l-115 -44l-65 89l117 40l-64 88h202l21 -30l99 37l64 -89l-103 -35l64 -90q97 -140 97 -262v-2q0 -116 -79 -193q-83 -79 -215 -79q-126 0 -208 76zM432 248v2q0 42 -30 72q-31 30 -79 30
q-108 0 -108 -101v-2q0 -43 31 -72q31 -31 79 -31q107 0 107 102z" />
    <glyph glyph-name="Lslash" unicode="&#x141;" horiz-adv-x="659" 
d="M107 245l-76 -22v173l76 22v282h193v-224l177 52v-174l-177 -52v-132h338v-170h-531v245z" />
    <glyph glyph-name="lslash" unicode="&#x142;" horiz-adv-x="401" 
d="M106 264l-82 -24v170l82 24v296h189v-242l82 24v-171l-82 -24v-317h-189v264z" />
    <glyph glyph-name="Scaron" unicode="&#x160;" horiz-adv-x="652" 
d="M9 104l108 129q105 -84 227 -84q80 0 80 48v2q0 22 -23 36q-25 15 -95 31q-64 15 -104 28q-51 18 -84 41q-76 52 -76 151v2q0 99 73 161q74 63 198 63q172 0 288 -93l-97 -137q-98 69 -196 69q-70 0 -70 -45v-2q0 -24 24 -38q25 -14 97 -30q64 -14 109 -30q50 -19 82 -43
q70 -52 70 -145v-2q0 -106 -78 -168q-76 -60 -205 -60q-198 0 -328 116zM115 912h122l84 -61l84 61h120l-128 -165h-154z" />
    <glyph glyph-name="scaron" unicode="&#x161;" horiz-adv-x="514" 
d="M10 68l71 115q94 -62 186 -62q48 0 48 29v2q0 22 -87 46q-46 12 -75 24q-37 14 -61 32q-56 42 -56 117v2q0 84 62 133q59 46 155 46q125 0 223 -63l-65 -120q-90 50 -160 50q-44 0 -44 -26v-2q0 -22 88 -48q46 -13 75 -25q37 -15 61 -33q56 -42 56 -114v-2
q0 -87 -61 -135q-59 -46 -160 -46q-145 0 -256 80zM54 752h122l84 -61l84 61h120l-128 -165h-154z" />
    <glyph glyph-name="Yacute" unicode="&#xdd;" horiz-adv-x="723" 
d="M264 262l-266 438h221l144 -255l145 255h217l-266 -435v-265h-195v262zM385 930l177 -57l-147 -128h-134z" />
    <glyph glyph-name="yacute" unicode="&#xfd;" horiz-adv-x="626" 
d="M37 -116l59 133q48 -29 83 -29q28 0 44 22l-212 531h199l108 -326l102 326h195l-198 -528q-36 -96 -80 -135q-46 -41 -126 -41q-90 0 -174 47zM330 772l177 -57l-147 -128h-134z" />
    <glyph glyph-name="Thorn" unicode="&#xde;" horiz-adv-x="682" 
d="M62 700h194v-100h106q134 0 212 -63q79 -65 79 -180v-2q0 -121 -85 -187q-81 -63 -216 -63h-96v-105h-194v700zM348 260q111 0 111 91v2q0 91 -112 91h-91v-184h92z" />
    <glyph glyph-name="thorn" unicode="&#xfe;" horiz-adv-x="676" 
d="M51 730h190v-261q33 40 66 59q42 25 98 25q100 0 168 -75q72 -79 72 -205v-2q0 -128 -71 -207q-68 -76 -168 -76q-56 0 -100 24q-34 18 -65 54v-226h-190v890zM426 181q32 35 32 89v2q0 53 -32 88q-32 34 -79 34q-46 0 -78 -34q-32 -35 -32 -88v-2q0 -53 32 -88t78 -35
q47 0 79 34z" />
    <glyph glyph-name="Zcaron" unicode="&#x17d;" horiz-adv-x="698" 
d="M40 141l351 395h-339v164h607v-141l-351 -395h351v-164h-619v141zM149 912h122l84 -61l84 61h120l-128 -165h-154z" />
    <glyph glyph-name="zcaron" unicode="&#x17e;" horiz-adv-x="563" 
d="M32 125l250 265h-241v151h493v-125l-251 -265h251v-151h-502v125zM79 752h122l84 -61l84 61h120l-128 -165h-154z" />
    <glyph glyph-name="space" unicode=" " horiz-adv-x="277" 
 />
    <glyph glyph-name="exclam" unicode="!" horiz-adv-x="324" 
d="M54 615v85h216v-85l-58 -387h-100zM63 170h198v-170h-198v170z" />
    <glyph glyph-name="quotedbl" unicode="&#x22;" horiz-adv-x="537" 
d="M313 700h204v-5l-127 -354h-100zM56 700h204v-5l-127 -354h-99z" />
    <glyph glyph-name="numbersign" unicode="#" horiz-adv-x="706" 
d="M107 135h-78v161h106l19 112h-92v161h120l22 131h145l-23 -131h127l22 131h145l-22 -131h78v-161h-106l-19 -112h92v-161h-119l-24 -135h-145l24 135h-127l-23 -135h-145zM409 292l20 120h-133l-21 -120h134z" />
    <glyph glyph-name="dollar" unicode="$" horiz-adv-x="666" 
d="M295 2q-154 16 -270 99l90 133q96 -67 186 -82v120q-126 29 -182 75q-61 51 -61 141v2q0 194 239 211v57h104v-60q115 -13 211 -78l-82 -134q-59 42 -134 60v-116q124 -29 179 -76q60 -52 60 -142v-2q0 -90 -65 -146q-62 -54 -171 -64v-98h-104v100zM302 555
q-68 -6 -68 -50v-2q0 -37 68 -56v108zM395 146q67 7 67 51v2q0 38 -67 57v-110z" />
    <glyph glyph-name="percent" unicode="%" horiz-adv-x="899" 
d="M85 388q-50 53 -50 132v2q0 79 49 133q51 55 132 55q80 0 131 -55q49 -53 49 -132v-2q0 -79 -50 -133q-52 -55 -131 -55t-130 55zM652 700h135l-540 -700h-135zM553 45q-50 54 -50 132v2q0 79 49 133q51 55 132 55q80 0 131 -55q49 -53 49 -132v-2q0 -78 -50 -132
q-52 -56 -131 -56t-130 55zM274 520v2q0 78 -59 78q-58 0 -58 -77v-2q0 -78 59 -78q58 0 58 77zM742 177v2q0 78 -59 78q-58 0 -58 -77v-2q0 -78 59 -78q58 0 58 77z" />
    <glyph glyph-name="ampersand" unicode="&#x26;" horiz-adv-x="698" 
d="M479 59q-93 -71 -208 -71q-110 0 -179 53q-71 56 -71 149v2q0 132 142 196q-46 66 -46 134v2q0 79 59 133q61 57 161 57q94 0 152 -52q56 -50 56 -128v-2q0 -62 -38 -109q-34 -43 -99 -73l78 -76q31 45 66 111l128 -64q-23 -43 -44 -77q-25 -39 -48 -71l94 -93l-131 -94z
M391 523v2q0 56 -54 56q-56 0 -56 -62v-2q0 -35 36 -80q74 33 74 86zM380 161l-115 117q-50 -30 -50 -76v-2q0 -69 82 -69q38 0 83 30z" />
    <glyph glyph-name="quotesingle" unicode="'" horiz-adv-x="284" 
d="M56 700h208v-5l-127 -354h-103z" />
    <glyph glyph-name="parenleft" unicode="(" horiz-adv-x="445" 
d="M336 -141q-146 76 -216 175q-76 106 -76 253t76 253q70 99 216 175l79 -118q-185 -128 -185 -310t185 -310z" />
    <glyph glyph-name="parenright" unicode=")" horiz-adv-x="445" 
d="M30 -23q185 128 185 310t-185 310l79 118q146 -76 216 -175q76 -106 76 -253t-76 -253q-70 -99 -216 -175z" />
    <glyph glyph-name="asterisk" unicode="*" horiz-adv-x="425" 
d="M185 471l-103 -88l-54 92l127 45l-127 45l54 93l103 -88l-25 132h105l-25 -132l103 88l54 -93l-127 -45l127 -45l-54 -92l-103 88l25 -132h-105z" />
    <glyph glyph-name="plus" unicode="+" horiz-adv-x="640" 
d="M233 268h-169v168h169v172h174v-172h169v-168h-169v-172h-174v172z" />
    <glyph glyph-name="comma" unicode="," horiz-adv-x="284" 
d="M20 -92q103 12 100 94h-77v195h198v-159q0 -106 -56 -155q-50 -45 -150 -48z" />
    <glyph glyph-name="hyphen" unicode="-" horiz-adv-x="408" 
d="M40 396h328v-167h-328v167z" />
    <glyph glyph-name="period" unicode="." horiz-adv-x="284" 
d="M43 195h198v-195h-198v195z" />
    <glyph glyph-name="slash" unicode="/" horiz-adv-x="535" 
d="M405 798h154l-443 -926h-154z" />
    <glyph glyph-name="zero" unicode="0" horiz-adv-x="730" 
d="M128 93q-87 102 -87 255v2q0 153 88 256q92 108 237 108t236 -107q87 -102 87 -255v-2q0 -153 -87 -256q-92 -108 -238 -108t-236 107zM459 211q35 53 35 137v2q0 84 -36 138q-37 54 -94 54t-93 -53q-35 -53 -35 -137v-2q0 -85 36 -138q36 -54 94 -54t93 53z" />
    <glyph glyph-name="one" unicode="1" horiz-adv-x="422" 
d="M163 524l-118 -27l-37 150l205 58h141v-705h-191v524z" />
    <glyph glyph-name="two" unicode="2" horiz-adv-x="624" 
d="M33 146l262 200q90 71 90 126q0 71 -78 71q-60 0 -139 -90l-131 109q60 78 120 111q68 39 165 39q115 0 186 -62q72 -62 72 -161v-2q0 -79 -42 -136q-19 -27 -51 -55q-26 -23 -69 -54l-120 -84h289v-158h-554v146z" />
    <glyph glyph-name="three" unicode="3" horiz-adv-x="621" 
d="M142 20q-70 31 -124 90l122 122q78 -80 167 -80q90 0 90 71v2q0 72 -114 72h-82l-28 101l161 145h-268v157h506v-139l-167 -143q82 -18 128 -62q53 -51 53 -135v-2q0 -105 -76 -170q-75 -63 -194 -63q-97 0 -174 34z" />
    <glyph glyph-name="four" unicode="4" horiz-adv-x="689" 
d="M384 136h-339l-32 137l363 432h196v-424h89v-145h-89v-136h-188v136zM384 280v201l-167 -201h167z" />
    <glyph glyph-name="five" unicode="5" horiz-adv-x="630" 
d="M142 16q-65 27 -123 81l111 130q90 -76 170 -76q103 0 103 82v2q0 81 -103 81q-54 0 -112 -35l-115 64l20 355h468v-160h-315l-6 -106q53 25 112 25q102 0 167 -54q73 -60 73 -168v-2q0 -115 -81 -183q-78 -66 -208 -66q-89 0 -161 30z" />
    <glyph glyph-name="six" unicode="6" horiz-adv-x="662" 
d="M216 7q-50 20 -89 59q-41 41 -62 101q-24 67 -24 161v2q0 171 80 274q87 110 245 110q130 0 233 -77l-91 -137q-36 27 -65 39q-35 14 -74 14q-117 0 -132 -149q33 25 64 38q40 16 87 16q97 0 162 -56q69 -61 69 -162v-2q0 -115 -82 -185q-78 -67 -196 -67q-71 0 -125 21z
M430 227v2q0 90 -99 90q-97 0 -97 -89v-2q0 -91 99 -91q97 0 97 90z" />
    <glyph glyph-name="seven" unicode="7" horiz-adv-x="614" 
d="M370 537h-324v163h539v-146l-309 -554h-214z" />
    <glyph glyph-name="eight" unicode="8" horiz-adv-x="630" 
d="M108 45q-81 57 -81 148v2q0 117 120 168q-45 25 -68 59q-28 40 -28 93v2q0 85 73 140q74 55 191 55t191 -55q73 -55 73 -140v-2q0 -53 -28 -93q-23 -34 -68 -59q58 -27 87 -63q33 -43 33 -104v-2q0 -93 -81 -150q-80 -56 -207 -56t-207 57zM401 492v2q0 74 -86 74
t-86 -73v-2q0 -77 86 -77t86 76zM416 212v2q0 76 -101 76t-101 -76v-2q0 -79 101 -79t101 79z" />
    <glyph glyph-name="nine" unicode="9" horiz-adv-x="662" 
d="M160 9q-56 20 -107 60l91 134q71 -56 150 -56q117 0 132 146q-60 -57 -148 -57q-104 0 -168 59q-67 61 -67 162v2q0 115 80 186q77 69 199 69q74 0 126 -21q47 -19 89 -61q40 -39 61 -100q23 -66 23 -159v-2q0 -176 -83 -278q-87 -107 -241 -107q-74 0 -137 23zM429 466
v2q0 95 -100 95q-98 0 -98 -94v-2q0 -92 100 -92q98 0 98 91z" />
    <glyph glyph-name="colon" unicode=":" horiz-adv-x="294" 
d="M48 541h198v-195h-198v195zM48 195h198v-195h-198v195z" />
    <glyph glyph-name="semicolon" unicode=";" horiz-adv-x="294" 
d="M48 541h198v-195h-198v195zM25 -94q103 12 100 94h-77v195h198v-159q0 -106 -56 -155q-50 -45 -150 -48z" />
    <glyph glyph-name="less" unicode="&#x3c;" horiz-adv-x="644" 
d="M65 263v177l497 198v-177l-327 -109l327 -109v-178z" />
    <glyph glyph-name="equal" unicode="=" horiz-adv-x="639" 
d="M74 570h491v-167h-491v167zM74 301h491v-167h-491v167z" />
    <glyph glyph-name="greater" unicode="&#x3e;" horiz-adv-x="644" 
d="M82 242l327 109l-327 109v178l497 -198v-177l-497 -198v177z" />
    <glyph glyph-name="question" unicode="?" horiz-adv-x="540" 
d="M166 395l8 9q157 14 157 80v1q0 55 -75 55q-72 0 -146 -66l-100 132q49 49 109 75q68 30 150 30q112 0 180 -56q70 -58 70 -154v-2q0 -88 -56 -141q-47 -44 -139 -66l-12 -64h-121zM150 170h197v-170h-197v170z" />
    <glyph glyph-name="at" unicode="@" horiz-adv-x="965" 
d="M171 -34q-126 126 -126 309q0 182 127 310q129 129 316 129q182 0 309 -118q122 -114 122 -271q0 -128 -66 -202q-59 -66 -147 -66q-59 0 -99 23q-35 19 -55 53q-64 -74 -147 -74q-79 0 -130 55q-53 56 -53 146q0 107 66 184q65 76 155 76q46 0 82 -22q31 -18 52 -52
l12 61l155 -24l-49 -280q-1 -12 -1 -22q0 -59 65 -59q51 0 83 52q35 55 35 151q0 142 -109 244q-113 105 -280 105q-173 0 -288 -117q-113 -114 -113 -282q0 -169 113 -282q114 -115 291 -115q131 0 245 67l20 -32q-60 -37 -122 -55q-68 -20 -143 -20q-192 0 -320 128z
M523 228q28 33 28 81q0 76 -73 76q-40 0 -68 -33t-28 -80q0 -78 73 -78q40 0 68 34z" />
    <glyph glyph-name="A" unicode="A" horiz-adv-x="795" 
d="M304 705h187l298 -705h-208l-51 125h-270l-50 -125h-204zM474 276l-78 199l-79 -199h157z" />
    <glyph glyph-name="B" unicode="B" horiz-adv-x="715" 
d="M62 700h359q128 0 191 -63q45 -45 45 -113v-2q0 -58 -31 -98q-27 -36 -77 -58q68 -22 101 -60q38 -43 38 -111v-2q0 -193 -265 -193h-361v700zM373 421q92 0 92 61v2q0 60 -88 60h-126v-123h122zM401 156q93 0 93 64v2q0 63 -95 63h-148v-129h150z" />
    <glyph glyph-name="C" unicode="C" horiz-adv-x="730" 
d="M144 89q-106 104 -106 259v2q0 154 105 259q106 105 264 105q102 0 179 -41q68 -36 118 -105l-146 -113q-66 82 -153 82q-72 0 -120 -54q-47 -53 -47 -131v-2q0 -80 47 -133q47 -54 120 -54q51 0 91 23q32 20 67 62l146 -104q-55 -75 -122 -113q-79 -45 -188 -45
q-151 0 -255 103z" />
    <glyph glyph-name="D" unicode="D" horiz-adv-x="765" 
d="M62 700h270q184 0 291 -97q104 -94 104 -249v-2q0 -155 -105 -252q-109 -100 -294 -100h-266v700zM335 172q88 0 140 46q53 47 53 131v2q0 83 -53 131q-52 46 -140 46h-79v-356h79z" />
    <glyph glyph-name="E" unicode="E" horiz-adv-x="667" 
d="M62 700h563v-165h-371v-106h336v-153h-336v-111h376v-165h-568v700z" />
    <glyph glyph-name="F" unicode="F" horiz-adv-x="648" 
d="M62 700h560v-170h-366v-119h331v-161h-331v-250h-194v700z" />
    <glyph glyph-name="G" unicode="G" horiz-adv-x="769" 
d="M147 88q-109 102 -109 260v2q0 154 107 259q108 105 270 105q89 0 160 -27q66 -25 124 -75l-114 -137q-79 66 -169 66q-76 0 -127 -56q-52 -56 -52 -136v-2q0 -85 53 -139q54 -55 137 -55q68 0 112 29v85h-138v142h322v-315q-60 -49 -132 -77q-82 -31 -172 -31
q-164 0 -272 102z" />
    <glyph glyph-name="H" unicode="H" horiz-adv-x="761" 
d="M62 700h194v-262h249v262h194v-700h-194v266h-249v-266h-194v700z" />
    <glyph glyph-name="I" unicode="I" horiz-adv-x="327" 
d="M66 700h195v-700h-195v700z" />
    <glyph glyph-name="J" unicode="J" horiz-adv-x="564" 
d="M100 22q-56 29 -96 84l125 118q54 -65 109 -65q80 0 80 98v443h193v-444q0 -128 -69 -197q-71 -71 -192 -71q-86 0 -150 34z" />
    <glyph glyph-name="K" unicode="K" horiz-adv-x="730" 
d="M62 700h194v-284l241 284h230l-265 -301l274 -399h-233l-176 260l-71 -79v-181h-194v700z" />
    <glyph glyph-name="L" unicode="L" horiz-adv-x="616" 
d="M62 700h194v-530h339v-170h-533v700z" />
    <glyph glyph-name="M" unicode="M" horiz-adv-x="868" 
d="M62 700h205l167 -271l167 271h205v-700h-193v402l-179 -274h-4l-178 272v-400h-190v700z" />
    <glyph glyph-name="N" unicode="N" horiz-adv-x="785" 
d="M62 700h181l288 -370v370h192v-700h-170l-299 384v-384h-192v700z" />
    <glyph glyph-name="O" unicode="O" horiz-adv-x="831" 
d="M145 92q-107 104 -107 256v2q0 152 108 257q109 107 270 107t269 -106q107 -104 107 -256v-2q0 -152 -108 -257q-109 -107 -270 -107t-269 106zM545 217q49 53 49 131v2q0 78 -50 132q-52 57 -130 57t-128 -56q-49 -53 -49 -131v-2q0 -78 50 -132q51 -57 129 -57t129 56z
" />
    <glyph glyph-name="P" unicode="P" horiz-adv-x="673" 
d="M62 700h300q134 0 212 -65q79 -66 79 -181v-2q0 -120 -85 -188q-81 -64 -216 -64h-96v-200h-194v700zM348 352q111 0 111 91v2q0 92 -112 92h-91v-185h92z" />
    <glyph glyph-name="Q" unicode="Q" horiz-adv-x="831" 
d="M627 48q-95 -62 -213 -62q-161 0 -269 106q-107 104 -107 256v2q0 152 108 257q109 107 270 107t269 -106q107 -104 107 -256v-2q0 -113 -62 -201l72 -61l-98 -109zM487 171l-97 83l98 110l95 -86q12 32 12 68v2q0 79 -50 134q-52 57 -131 57q-78 0 -128 -57
q-49 -54 -49 -132v-2q0 -78 49 -133q52 -57 130 -57q37 0 71 13z" />
    <glyph glyph-name="R" unicode="R" horiz-adv-x="719" 
d="M62 700h331q154 0 228 -76q62 -60 62 -163v-2q0 -154 -144 -215l167 -244h-224l-141 212h-85v-212h-194v700zM384 364q104 0 104 83v2q0 83 -105 83h-127v-168h128z" />
    <glyph glyph-name="S" unicode="S" horiz-adv-x="652" 
d="M9 104l108 129q105 -84 227 -84q80 0 80 48v2q0 22 -23 36q-25 15 -95 31q-64 15 -104 28q-51 18 -84 41q-76 52 -76 151v2q0 99 73 161q74 63 198 63q172 0 288 -93l-97 -137q-98 69 -196 69q-70 0 -70 -45v-2q0 -24 24 -38q25 -14 97 -30q64 -14 109 -30q50 -19 82 -43
q70 -52 70 -145v-2q0 -106 -78 -168q-76 -60 -205 -60q-198 0 -328 116z" />
    <glyph glyph-name="T" unicode="T" horiz-adv-x="660" 
d="M233 530h-210v170h614v-170h-210v-530h-194v530z" />
    <glyph glyph-name="U" unicode="U" horiz-adv-x="758" 
d="M140 65q-87 82 -87 242v393h197v-389q0 -149 129 -149t129 144v394h197v-388q0 -164 -89 -247q-84 -78 -239 -78q-154 0 -237 78z" />
    <glyph glyph-name="V" unicode="V" horiz-adv-x="760" 
d="M6 700h217l159 -443l159 443h213l-284 -705h-180z" />
    <glyph glyph-name="W" unicode="W" horiz-adv-x="1117" 
d="M15 700h205l122 -405l135 407h167l135 -407l122 405h201l-234 -705h-169l-141 403l-140 -403h-169z" />
    <glyph glyph-name="X" unicode="X" horiz-adv-x="732" 
d="M251 356l-230 344h223l124 -197l125 197h218l-230 -342l240 -358h-223l-134 211l-135 -211h-218z" />
    <glyph glyph-name="Y" unicode="Y" horiz-adv-x="723" 
d="M264 262l-266 438h221l144 -255l145 255h217l-266 -435v-265h-195v262z" />
    <glyph glyph-name="Z" unicode="Z" horiz-adv-x="698" 
d="M40 141l351 395h-339v164h607v-141l-351 -395h351v-164h-619v141z" />
    <glyph glyph-name="bracketleft" unicode="[" horiz-adv-x="457" 
d="M66 700h346v-129h-176v-572h176v-129h-346v830z" />
    <glyph glyph-name="backslash" unicode="\" horiz-adv-x="535" 
d="M-24 798h154l443 -926h-154z" />
    <glyph glyph-name="bracketright" unicode="]" horiz-adv-x="457" 
d="M45 -1h176v572h-176v129h346v-830h-346v129z" />
    <glyph glyph-name="asciicircum" unicode="^" 
d="M186 699h128l144 -206h-133l-76 97l-76 -97h-131z" />
    <glyph glyph-name="underscore" unicode="_" horiz-adv-x="600" 
d="M-2 -44h604v-116h-604v116z" />
    <glyph glyph-name="grave" unicode="`" 
d="M88 715l177 57l104 -185h-134z" />
    <glyph glyph-name="a" unicode="a" horiz-adv-x="599" 
d="M76 31q-52 45 -52 124v2q0 82 58 127q56 43 154 43q71 0 130 -21v9q0 88 -108 88q-73 0 -149 -30l-39 134q50 21 98 30q55 12 121 12q140 0 206 -66q58 -57 58 -172v-311h-188v56q-61 -68 -159 -68q-80 0 -130 43zM368 196v25q-33 14 -74 14q-87 0 -87 -67v-2
q0 -59 67 -59q94 0 94 89z" />
    <glyph glyph-name="b" unicode="b" horiz-adv-x="676" 
d="M306 12q-34 18 -65 54v-66h-190v730h190v-261q33 40 66 59q42 25 98 25q100 0 168 -75q72 -79 72 -205v-2q0 -128 -71 -207q-68 -76 -168 -76q-56 0 -100 24zM426 181q32 35 32 89v2q0 53 -32 88q-32 34 -79 34q-46 0 -78 -34q-32 -35 -32 -88v-2q0 -53 32 -88t78 -35
q47 0 79 34z" />
    <glyph glyph-name="c" unicode="c" horiz-adv-x="569" 
d="M109 70q-80 82 -80 198v2q0 117 81 198q83 84 209 84q80 0 140 -33q55 -31 91 -88l-129 -96q-41 57 -101 57q-45 0 -76 -35q-30 -35 -30 -85v-2q0 -53 30 -88t78 -35q56 0 104 56l127 -92q-40 -59 -95 -90q-61 -34 -146 -34q-121 0 -203 83z" />
    <glyph glyph-name="d" unicode="d" horiz-adv-x="676" 
d="M103 63q-72 79 -72 205v2q0 128 71 208q67 75 167 75q56 0 100 -24q34 -18 66 -54v255h190v-730h-190v72q-32 -39 -66 -59q-43 -25 -99 -25q-100 0 -167 75zM406 182q32 35 32 88v2q0 53 -32 88q-32 34 -78 34q-47 0 -78 -34q-33 -35 -33 -88v-2q0 -53 33 -88
q32 -35 78 -35t78 35z" />
    <glyph glyph-name="e" unicode="e" horiz-adv-x="605" 
d="M110 65q-81 78 -81 203v2q0 120 77 201q77 82 196 82q133 0 207 -88q66 -80 66 -208v-19q0 -11 -1 -20h-362q23 -89 117 -89q64 0 120 55l105 -87q-41 -52 -96 -80q-61 -30 -139 -30q-128 0 -209 78zM397 315q-11 98 -94 98q-77 0 -94 -98h188z" />
    <glyph glyph-name="f" unicode="f" horiz-adv-x="404" 
d="M85 389h-63v149h63v12q0 94 46 140q47 47 141 47q74 0 124 -15v-134q-35 11 -71 11q-54 0 -54 -51v-13h124v-146h-121v-389h-189v389z" />
    <glyph glyph-name="g" unicode="g" horiz-adv-x="676" 
d="M46 -100l61 126q92 -51 189 -51q142 0 142 133v21q-32 -38 -68 -57q-44 -24 -99 -24q-102 0 -170 67q-70 71 -70 184v2q0 113 70 185q67 67 164 67q56 0 100 -22q35 -17 70 -54v64h190v-411q0 -146 -70 -216q-76 -76 -238 -76q-150 0 -271 62zM407 224q31 30 31 75v2
q0 104 -110 104q-48 0 -80 -30q-31 -30 -31 -75v-2q0 -104 111 -104q48 0 79 30z" />
    <glyph glyph-name="h" unicode="h" horiz-adv-x="634" 
d="M51 730h190v-263q30 39 65 60q44 26 97 26q184 0 184 -199v-354h-190v293q0 91 -76 91q-80 0 -80 -91v-293h-190v730z" />
    <glyph glyph-name="i" unicode="i" horiz-adv-x="300" 
d="M51 730h198v-140h-198v140zM55 541h190v-541h-190v541z" />
    <glyph glyph-name="j" unicode="j" horiz-adv-x="302" 
d="M51 730h198v-140h-198v140zM10 -161l-36 5v126q8 -1 25 -1q56 0 56 63v509h190v-517q0 -99 -50 -145q-47 -42 -143 -42q-19 0 -42 2z" />
    <glyph glyph-name="k" unicode="k" horiz-adv-x="603" 
d="M51 730h190v-370l147 181h215l-188 -217l193 -324h-209l-109 184l-49 -57v-127h-190v730z" />
    <glyph glyph-name="l" unicode="l" horiz-adv-x="300" 
d="M55 730h190v-730h-190v730z" />
    <glyph glyph-name="m" unicode="m" horiz-adv-x="971" 
d="M51 541h190v-74q30 39 65 60q44 26 96 26q110 0 156 -88q37 43 79 64q45 24 102 24q185 0 185 -198v-355h-190v294q0 90 -74 90q-78 0 -78 -90v-294h-190v294q0 90 -74 90q-77 0 -77 -90v-294h-190v541z" />
    <glyph glyph-name="n" unicode="n" horiz-adv-x="634" 
d="M51 541h190v-76q31 40 65 61q44 27 97 27q184 0 184 -199v-354h-190v293q0 91 -76 91q-80 0 -80 -91v-293h-190v541z" />
    <glyph glyph-name="o" unicode="o" horiz-adv-x="656" 
d="M113 70q-84 81 -84 198v2q0 117 85 199q86 84 215 84q128 0 214 -83q84 -81 84 -198v-2q0 -117 -85 -199q-86 -84 -215 -84q-128 0 -214 83zM411 184q31 34 31 84v2q0 50 -32 86q-34 36 -83 36q-50 0 -82 -36q-31 -34 -31 -84v-2q0 -50 32 -86q34 -36 83 -36q50 0 82 36z
" />
    <glyph glyph-name="p" unicode="p" horiz-adv-x="676" 
d="M51 541h190v-72q33 40 66 59q42 25 98 25q100 0 168 -75q72 -79 72 -205v-2q0 -128 -71 -207q-68 -76 -168 -76q-56 0 -100 24q-34 18 -65 54v-226h-190v701zM426 181q32 35 32 89v2q0 53 -32 88q-32 34 -79 34q-46 0 -78 -34q-32 -35 -32 -88v-2q0 -53 32 -88t78 -35
q47 0 79 34z" />
    <glyph glyph-name="q" unicode="q" horiz-adv-x="676" 
d="M435 72q-32 -39 -66 -59q-43 -25 -99 -25q-100 0 -167 75q-72 79 -72 205v2q0 128 71 208q67 75 167 75q56 0 100 -24q34 -18 66 -54v66h190v-701h-190v232zM406 182q32 35 32 88v2q0 53 -32 88q-32 34 -78 34q-47 0 -78 -34q-33 -35 -33 -88v-2q0 -53 33 -88
q32 -35 78 -35t78 35z" />
    <glyph glyph-name="r" unicode="r" horiz-adv-x="428" 
d="M51 541h190v-109q25 59 63 88q44 33 108 30v-200h-16q-155 0 -155 -182v-168h-190v541z" />
    <glyph glyph-name="s" unicode="s" horiz-adv-x="514" 
d="M10 68l71 115q94 -62 186 -62q48 0 48 29v2q0 22 -87 46q-46 12 -75 24q-37 14 -61 32q-56 42 -56 117v2q0 84 62 133q59 46 155 46q125 0 223 -63l-65 -120q-90 50 -160 50q-44 0 -44 -26v-2q0 -22 88 -48q46 -13 75 -25q37 -15 61 -33q56 -42 56 -114v-2
q0 -87 -61 -135q-59 -46 -160 -46q-145 0 -256 80z" />
    <glyph glyph-name="t" unicode="t" horiz-adv-x="431" 
d="M84 168v220h-64v153h64v137h190v-137h126v-153h-126v-183q0 -54 52 -54q34 0 72 18v-149q-55 -31 -132 -31q-182 0 -182 179z" />
    <glyph glyph-name="u" unicode="u" horiz-adv-x="634" 
d="M47 187v354h190v-293q0 -91 77 -91q79 0 79 91v293h190v-541h-190v74q-30 -39 -65 -60q-44 -26 -97 -26q-184 0 -184 199z" />
    <glyph glyph-name="v" unicode="v" horiz-adv-x="625" 
d="M10 541h200l104 -316l104 316h197l-216 -545h-173z" />
    <glyph glyph-name="w" unicode="w" horiz-adv-x="861" 
d="M12 541h186l71 -272l83 274h157l84 -276l73 274h183l-167 -545h-164l-88 281l-90 -281h-163z" />
    <glyph glyph-name="x" unicode="x" horiz-adv-x="589" 
d="M190 273l-179 268h205l80 -133l80 133h201l-178 -267l182 -274h-204l-84 139l-85 -139h-200z" />
    <glyph glyph-name="y" unicode="y" horiz-adv-x="626" 
d="M37 -116l59 133q48 -29 83 -29q28 0 44 22l-212 531h199l108 -326l102 326h195l-198 -528q-36 -96 -80 -135q-46 -41 -126 -41q-90 0 -174 47z" />
    <glyph glyph-name="z" unicode="z" horiz-adv-x="563" 
d="M32 125l250 265h-241v151h493v-125l-251 -265h251v-151h-502v125z" />
    <glyph glyph-name="braceleft" unicode="{" horiz-adv-x="490" 
d="M429 -141q-146 18 -207 64q-57 44 -57 129l3 74q0 98 -118 98h-16v126h16q118 0 118 98l-3 74q0 85 57 129q61 46 207 64l29 -111q-77 -17 -102 -42q-22 -22 -22 -71l3 -70q0 -103 -112 -134q112 -31 112 -134l-3 -70q0 -49 22 -71q25 -25 102 -42z" />
    <glyph glyph-name="bar" unicode="|" horiz-adv-x="355" 
d="M105 798h145v-926h-145v926z" />
    <glyph glyph-name="braceright" unicode="}" horiz-adv-x="490" 
d="M32 -30q77 17 102 42q22 22 22 71l-3 70q0 103 112 134q-112 31 -112 134l3 70q0 49 -22 71q-25 25 -102 42l29 111q146 -18 207 -64q57 -44 57 -129l-3 -74q0 -98 118 -98h16v-126h-16q-118 0 -118 -98l3 -74q0 -85 -57 -129q-61 -46 -207 -64z" />
    <glyph glyph-name="asciitilde" unicode="~" horiz-adv-x="505" 
d="M41 245q33 149 124 149q20 0 45 -6q18 -4 44 -13l19 -8l19 -6q19 -6 29 -6q32 0 51 46l92 -25q-33 -149 -124 -149q-20 0 -45 6q-18 4 -44 14l-38 13q-19 6 -30 6q-31 0 -50 -46z" />
    <glyph glyph-name="Adieresis" unicode="&#xc4;" horiz-adv-x="795" 
d="M304 705h187l298 -705h-208l-51 125h-270l-50 -125h-204zM474 276l-78 199l-79 -199h157zM425 890h165v-143h-165v143zM206 890h165v-143h-165v143z" />
    <glyph glyph-name="Aring" unicode="&#xc5;" horiz-adv-x="795" 
d="M296 687q-31 34 -31 77v2q0 51 40 89q39 37 93 37q53 0 92 -37q40 -38 40 -89v-2q0 -43 -31 -77l290 -687h-208l-51 125h-270l-50 -125h-204zM464 764v2q0 65 -66 65q-67 0 -67 -65v-2q0 -66 67 -66q66 0 66 66zM474 276l-78 199l-79 -199h157z" />
    <glyph glyph-name="Ccedilla" unicode="&#xc7;" horiz-adv-x="730" 
d="M230 -109l78 106q-119 30 -193 124q-77 97 -77 227v2q0 154 105 259q106 105 264 105q102 0 179 -41q68 -36 118 -105l-146 -113q-66 82 -153 82q-72 0 -120 -54q-47 -53 -47 -131v-2q0 -80 47 -133q47 -54 120 -54q51 0 91 23q32 20 67 62l146 -104q-49 -68 -109 -105
q-70 -43 -163 -51l-56 -161z" />
    <glyph glyph-name="Eacute" unicode="&#xc9;" horiz-adv-x="667" 
d="M62 700h563v-165h-371v-106h336v-153h-336v-111h376v-165h-568v700zM356 932l177 -57l-147 -128h-134z" />
    <glyph glyph-name="Ntilde" unicode="&#xd1;" horiz-adv-x="785" 
d="M62 700h181l288 -370v370h192v-700h-170l-299 384v-384h-192v700zM182 765q32 149 124 149q20 0 45 -6q18 -4 44 -13l19 -8l19 -6q19 -6 29 -6q32 0 51 46l91 -25q-32 -149 -124 -149q-20 0 -45 6q-18 4 -43 14l-39 13q-19 6 -29 6q-32 0 -51 -46z" />
    <glyph glyph-name="Odieresis" unicode="&#xd6;" horiz-adv-x="831" 
d="M145 92q-107 104 -107 256v2q0 152 108 257q109 107 270 107t269 -106q107 -104 107 -256v-2q0 -152 -108 -257q-109 -107 -270 -107t-269 106zM545 217q49 53 49 131v2q0 78 -50 132q-52 57 -130 57t-128 -56q-49 -53 -49 -131v-2q0 -78 50 -132q51 -57 129 -57t129 56z
M443 890h165v-143h-165v143zM224 890h165v-143h-165v143z" />
    <glyph glyph-name="Udieresis" unicode="&#xdc;" horiz-adv-x="758" 
d="M140 65q-87 82 -87 242v393h197v-389q0 -149 129 -149t129 144v394h197v-388q0 -164 -89 -247q-84 -78 -239 -78q-154 0 -237 78zM406 890h165v-143h-165v143zM187 890h165v-143h-165v143z" />
    <glyph glyph-name="aacute" unicode="&#xe1;" horiz-adv-x="599" 
d="M76 31q-52 45 -52 124v2q0 82 58 127q56 43 154 43q71 0 130 -21v9q0 88 -108 88q-73 0 -149 -30l-39 134q50 21 98 30q55 12 121 12q140 0 206 -66q58 -57 58 -172v-311h-188v56q-61 -68 -159 -68q-80 0 -130 43zM368 196v25q-33 14 -74 14q-87 0 -87 -67v-2
q0 -59 67 -59q94 0 94 89zM320 774l177 -57l-147 -128h-134z" />
    <glyph glyph-name="agrave" unicode="&#xe0;" horiz-adv-x="599" 
d="M76 31q-52 45 -52 124v2q0 82 58 127q56 43 154 43q71 0 130 -21v9q0 88 -108 88q-73 0 -149 -30l-39 134q50 21 98 30q55 12 121 12q140 0 206 -66q58 -57 58 -172v-311h-188v56q-61 -68 -159 -68q-80 0 -130 43zM368 196v25q-33 14 -74 14q-87 0 -87 -67v-2
q0 -59 67 -59q94 0 94 89zM105 717l177 57l104 -185h-134z" />
    <glyph glyph-name="acircumflex" unicode="&#xe2;" horiz-adv-x="599" 
d="M76 31q-52 45 -52 124v2q0 82 58 127q56 43 154 43q71 0 130 -21v9q0 88 -108 88q-73 0 -149 -30l-39 134q50 21 98 30q55 12 121 12q140 0 206 -66q58 -57 58 -172v-311h-188v56q-61 -68 -159 -68q-80 0 -130 43zM368 196v25q-33 14 -74 14q-87 0 -87 -67v-2
q0 -59 67 -59q94 0 94 89zM220 752h154l128 -165h-122l-84 61l-84 -61h-120z" />
    <glyph glyph-name="adieresis" unicode="&#xe4;" horiz-adv-x="599" 
d="M76 31q-52 45 -52 124v2q0 82 58 127q56 43 154 43q71 0 130 -21v9q0 88 -108 88q-73 0 -149 -30l-39 134q50 21 98 30q55 12 121 12q140 0 206 -66q58 -57 58 -172v-311h-188v56q-61 -68 -159 -68q-80 0 -130 43zM368 196v25q-33 14 -74 14q-87 0 -87 -67v-2
q0 -59 67 -59q94 0 94 89zM324 732h165v-143h-165v143zM105 732h165v-143h-165v143z" />
    <glyph glyph-name="atilde" unicode="&#xe3;" horiz-adv-x="599" 
d="M76 31q-52 45 -52 124v2q0 82 58 127q56 43 154 43q71 0 130 -21v9q0 88 -108 88q-73 0 -149 -30l-39 134q50 21 98 30q55 12 121 12q140 0 206 -66q58 -57 58 -172v-311h-188v56q-61 -68 -159 -68q-80 0 -130 43zM368 196v25q-33 14 -74 14q-87 0 -87 -67v-2
q0 -59 67 -59q94 0 94 89zM88 605q32 149 124 149q20 0 45 -6q18 -4 44 -13l19 -8l19 -6q19 -6 29 -6q32 0 51 46l91 -25q-32 -149 -124 -149q-20 0 -45 6q-18 4 -43 14l-39 13q-19 6 -29 6q-32 0 -51 -46z" />
    <glyph glyph-name="aring" unicode="&#xe5;" horiz-adv-x="599" 
d="M76 31q-52 45 -52 124v2q0 82 58 127q56 43 154 43q71 0 130 -21v9q0 88 -108 88q-73 0 -149 -30l-39 134q50 21 98 30q55 12 121 12q140 0 206 -66q58 -57 58 -172v-311h-188v56q-61 -68 -159 -68q-80 0 -130 43zM368 196v25q-33 14 -74 14q-87 0 -87 -67v-2
q0 -59 67 -59q94 0 94 89zM204 629q-40 38 -40 89v2q0 51 40 89q40 37 93 37t93 -37q40 -38 40 -89v-2q0 -51 -40 -89t-93 -38t-93 38zM364 718v2q0 65 -67 65t-67 -65v-2q0 -66 67 -66t67 66z" />
    <glyph glyph-name="ccedilla" unicode="&#xe7;" horiz-adv-x="569" 
d="M141 -109l81 110q-87 28 -140 101t-53 166v2q0 117 81 198q83 84 209 84q80 0 140 -33q55 -31 91 -88l-129 -96q-41 57 -101 57q-45 0 -76 -35q-30 -35 -30 -85v-2q0 -53 30 -88t78 -35q56 0 104 56l127 -92q-36 -53 -82 -82q-52 -34 -122 -40l-57 -162z" />
    <glyph glyph-name="eacute" unicode="&#xe9;" horiz-adv-x="605" 
d="M110 65q-81 78 -81 203v2q0 120 77 201q77 82 196 82q133 0 207 -88q66 -80 66 -208v-19q0 -11 -1 -20h-362q23 -89 117 -89q64 0 120 55l105 -87q-41 -52 -96 -80q-61 -30 -139 -30q-128 0 -209 78zM397 315q-11 98 -94 98q-77 0 -94 -98h188zM332 774l177 -57
l-147 -128h-134z" />
    <glyph glyph-name="egrave" unicode="&#xe8;" horiz-adv-x="605" 
d="M110 65q-81 78 -81 203v2q0 120 77 201q77 82 196 82q133 0 207 -88q66 -80 66 -208v-19q0 -11 -1 -20h-362q23 -89 117 -89q64 0 120 55l105 -87q-41 -52 -96 -80q-61 -30 -139 -30q-128 0 -209 78zM397 315q-11 98 -94 98q-77 0 -94 -98h188zM97 717l177 57l104 -185
h-134z" />
    <glyph glyph-name="ecircumflex" unicode="&#xea;" horiz-adv-x="605" 
d="M110 65q-81 78 -81 203v2q0 120 77 201q77 82 196 82q133 0 207 -88q66 -80 66 -208v-19q0 -11 -1 -20h-362q23 -89 117 -89q64 0 120 55l105 -87q-41 -52 -96 -80q-61 -30 -139 -30q-128 0 -209 78zM397 315q-11 98 -94 98q-77 0 -94 -98h188zM226 750h154l128 -165
h-122l-84 61l-84 -61h-120z" />
    <glyph glyph-name="edieresis" unicode="&#xeb;" horiz-adv-x="605" 
d="M110 65q-81 78 -81 203v2q0 120 77 201q77 82 196 82q133 0 207 -88q66 -80 66 -208v-19q0 -11 -1 -20h-362q23 -89 117 -89q64 0 120 55l105 -87q-41 -52 -96 -80q-61 -30 -139 -30q-128 0 -209 78zM397 315q-11 98 -94 98q-77 0 -94 -98h188zM330 730h165v-143h-165
v143zM111 730h165v-143h-165v143z" />
    <glyph glyph-name="iacute" unicode="&#xed;" horiz-adv-x="300" 
d="M55 541h190v-541h-190v541zM177 772l177 -57l-147 -128h-134z" />
    <glyph glyph-name="igrave" unicode="&#xec;" horiz-adv-x="300" 
d="M55 541h190v-541h-190v541zM-52 715l178 57l104 -185h-134z" />
    <glyph glyph-name="icircumflex" unicode="&#xee;" horiz-adv-x="300" 
d="M55 541h190v-541h-190v541zM74 752h154l128 -165h-122l-84 61l-84 -61h-120z" />
    <glyph glyph-name="idieresis" unicode="&#xef;" horiz-adv-x="300" 
d="M55 541h190v-541h-190v541zM178 730h165v-143h-165v143zM-41 730h165v-143h-165v143z" />
    <glyph glyph-name="ntilde" unicode="&#xf1;" horiz-adv-x="634" 
d="M51 541h190v-76q31 40 65 61q44 27 97 27q184 0 184 -199v-354h-190v293q0 91 -76 91q-80 0 -80 -91v-293h-190v541zM111 605q32 149 124 149q20 0 45 -6q18 -4 44 -13l19 -8l19 -6q19 -6 29 -6q32 0 51 46l91 -25q-32 -149 -124 -149q-20 0 -45 6q-18 4 -43 14l-39 13
q-19 6 -29 6q-32 0 -51 -46z" />
    <glyph glyph-name="oacute" unicode="&#xf3;" horiz-adv-x="656" 
d="M113 70q-84 81 -84 198v2q0 117 85 199q86 84 215 84q128 0 214 -83q84 -81 84 -198v-2q0 -117 -85 -199q-86 -84 -215 -84q-128 0 -214 83zM411 184q31 34 31 84v2q0 50 -32 86q-34 36 -83 36q-50 0 -82 -36q-31 -34 -31 -84v-2q0 -50 32 -86q34 -36 83 -36q50 0 82 36z
M359 774l177 -57l-147 -128h-134z" />
    <glyph glyph-name="ograve" unicode="&#xf2;" horiz-adv-x="656" 
d="M113 70q-84 81 -84 198v2q0 117 85 199q86 84 215 84q128 0 214 -83q84 -81 84 -198v-2q0 -117 -85 -199q-86 -84 -215 -84q-128 0 -214 83zM411 184q31 34 31 84v2q0 50 -32 86q-34 36 -83 36q-50 0 -82 -36q-31 -34 -31 -84v-2q0 -50 32 -86q34 -36 83 -36q50 0 82 36z
M120 717l177 57l104 -185h-134z" />
    <glyph glyph-name="ocircumflex" unicode="&#xf4;" horiz-adv-x="656" 
d="M113 70q-84 81 -84 198v2q0 117 85 199q86 84 215 84q128 0 214 -83q84 -81 84 -198v-2q0 -117 -85 -199q-86 -84 -215 -84q-128 0 -214 83zM411 184q31 34 31 84v2q0 50 -32 86q-34 36 -83 36q-50 0 -82 -36q-31 -34 -31 -84v-2q0 -50 32 -86q34 -36 83 -36q50 0 82 36z
M251 750h154l128 -165h-122l-84 61l-84 -61h-120z" />
    <glyph glyph-name="odieresis" unicode="&#xf6;" horiz-adv-x="656" 
d="M113 70q-84 81 -84 198v2q0 117 85 199q86 84 215 84q128 0 214 -83q84 -81 84 -198v-2q0 -117 -85 -199q-86 -84 -215 -84q-128 0 -214 83zM411 184q31 34 31 84v2q0 50 -32 86q-34 36 -83 36q-50 0 -82 -36q-31 -34 -31 -84v-2q0 -50 32 -86q34 -36 83 -36q50 0 82 36z
M355 730h165v-143h-165v143zM136 730h165v-143h-165v143z" />
    <glyph glyph-name="otilde" unicode="&#xf5;" horiz-adv-x="656" 
d="M113 70q-84 81 -84 198v2q0 117 85 199q86 84 215 84q128 0 214 -83q84 -81 84 -198v-2q0 -117 -85 -199q-86 -84 -215 -84q-128 0 -214 83zM411 184q31 34 31 84v2q0 50 -32 86q-34 36 -83 36q-50 0 -82 -36q-31 -34 -31 -84v-2q0 -50 32 -86q34 -36 83 -36q50 0 82 36z
M117 605q32 149 124 149q20 0 45 -6q18 -4 44 -13l19 -8l19 -6q19 -6 29 -6q32 0 51 46l91 -25q-32 -149 -124 -149q-20 0 -45 6q-18 4 -43 14l-39 13q-19 6 -29 6q-32 0 -51 -46z" />
    <glyph glyph-name="uacute" unicode="&#xfa;" horiz-adv-x="634" 
d="M47 187v354h190v-293q0 -91 77 -91q79 0 79 91v293h190v-541h-190v74q-30 -39 -65 -60q-44 -26 -97 -26q-184 0 -184 199zM332 772l177 -57l-147 -128h-134z" />
    <glyph glyph-name="ugrave" unicode="&#xf9;" horiz-adv-x="634" 
d="M47 187v354h190v-293q0 -91 77 -91q79 0 79 91v293h190v-541h-190v74q-30 -39 -65 -60q-44 -26 -97 -26q-184 0 -184 199zM125 715l177 57l104 -185h-134z" />
    <glyph glyph-name="ucircumflex" unicode="&#xfb;" horiz-adv-x="634" 
d="M47 187v354h190v-293q0 -91 77 -91q79 0 79 91v293h190v-541h-190v74q-30 -39 -65 -60q-44 -26 -97 -26q-184 0 -184 199zM240 752h154l128 -165h-122l-84 61l-84 -61h-120z" />
    <glyph glyph-name="udieresis" unicode="&#xfc;" horiz-adv-x="634" 
d="M47 187v354h190v-293q0 -91 77 -91q79 0 79 91v293h190v-541h-190v74q-30 -39 -65 -60q-44 -26 -97 -26q-184 0 -184 199zM344 730h165v-143h-165v143zM125 730h165v-143h-165v143z" />
    <glyph glyph-name="dagger" unicode="&#x2020;" horiz-adv-x="410" 
d="M165 493l-125 -13v104l124 -13l-15 129h112l-15 -129l124 13v-104l-125 13l10 -270h-100z" />
    <glyph glyph-name="degree" unicode="&#xb0;" horiz-adv-x="472" 
d="M108 404q-54 52 -54 124v2q0 72 55 125q54 53 127 53t127 -53q55 -53 55 -125v-2q0 -72 -54 -124t-128 -52t-128 52zM320 528v2q0 35 -25 60q-24 25 -59 25q-84 0 -84 -85v-2q0 -84 84 -84t84 84z" />
    <glyph glyph-name="cent" unicode="&#xa2;" horiz-adv-x="575" 
d="M219 92q-84 29 -135 99q-52 72 -52 162v2q0 118 78 198q80 80 206 83l12 70h115l-15 -87q81 -30 126 -97l-116 -89q-22 27 -47 40l-46 -252q53 7 95 57l115 -84q-79 -115 -224 -119l-14 -81h-115zM298 491q-45 -7 -73 -46q-28 -37 -28 -88v-2q0 -83 56 -117z" />
    <glyph glyph-name="sterling" unicode="&#xa3;" horiz-adv-x="639" 
d="M44 115l75 29v119h-75v136h75v51q0 124 69 193t191 69q77 0 138 -29q52 -25 95 -72l-118 -129q-47 57 -102 57q-80 0 -80 -89v-51h216v-136h-216v-110h293v-153h-561v115z" />
    <glyph glyph-name="section" unicode="&#xa7;" horiz-adv-x="626" 
d="M72 66l77 109q82 -59 164 -59q54 0 54 30v2q0 25 -97 45q-54 12 -88 23q-44 13 -73 29q-67 36 -67 94v2q0 77 91 110q-47 36 -47 99v2q0 70 58 114q62 47 173 47q147 0 237 -79l-77 -109q-82 59 -164 59q-54 0 -54 -30v-2q0 -25 97 -45q54 -12 88 -23q44 -13 73 -28
q67 -36 67 -95v-2q0 -77 -91 -110q47 -36 47 -98v-2q0 -70 -57 -114q-63 -48 -174 -48q-147 0 -237 79zM438 332v2q0 27 -101 51q-70 18 -99 18q-51 0 -51 -35v-2q0 -27 101 -51q72 -18 99 -18q51 0 51 35z" />
    <glyph glyph-name="bullet" unicode="&#x2022;" 
d="M131 232q-50 49 -50 119v2q0 70 50 119q49 49 119 49t119 -49q50 -49 50 -119v-2q0 -70 -50 -119q-49 -49 -119 -49t-119 49z" />
    <glyph glyph-name="paragraph" unicode="&#xb6;" horiz-adv-x="596" 
d="M339 220h-21q-133 0 -212 61q-84 63 -84 176v2q0 115 80 179q78 62 213 62h219v-700h-195v220z" />
    <glyph glyph-name="germandbls" unicode="&#xdf;" horiz-adv-x="635" 
d="M307 133q113 6 113 81v2q0 71 -113 81v101q37 18 58 43q24 29 24 64v2q0 73 -69 73q-80 0 -80 -97v-483h-189v479q0 119 70 189q72 71 202 71q114 0 184 -61q66 -58 66 -148v-2q0 -58 -31 -102q-26 -38 -73 -62q59 -19 95 -57q44 -46 44 -113v-2q0 -97 -85 -151
q-83 -52 -216 -44v136z" />
    <glyph glyph-name="registered" unicode="&#xae;" horiz-adv-x="830" 
d="M157 93q-104 106 -104 255v2q0 149 105 256q107 108 258 108t257 -107q104 -106 104 -255v-2q0 -149 -105 -256q-107 -108 -258 -108t-257 107zM643 122q92 94 92 228v2q0 134 -91 227q-93 95 -228 95q-136 0 -229 -96q-92 -94 -92 -228v-2q0 -134 91 -227
q93 -95 228 -95q136 0 229 96zM256 553h179q87 0 130 -43q33 -33 33 -88v-2q0 -85 -79 -118l92 -134h-123l-78 117h-47v-117h-107v385zM433 368q58 0 58 45v2q0 46 -59 46h-69v-93h70z" />
    <glyph glyph-name="copyright" unicode="&#xa9;" horiz-adv-x="830" 
d="M157 93q-104 106 -104 255v2q0 149 105 256q107 108 258 108t257 -107q104 -106 104 -255v-2q0 -149 -105 -256q-107 -108 -258 -108t-257 107zM643 122q92 94 92 228v2q0 134 -91 227q-93 95 -228 95q-136 0 -229 -96q-92 -94 -92 -228v-2q0 -134 91 -227
q93 -95 228 -95q136 0 229 96zM276 213q-57 56 -57 140v2q0 83 57 140q58 59 147 59q56 0 98 -22q36 -19 64 -57l-81 -64q-37 45 -84 45q-39 0 -65 -29q-25 -29 -25 -71v-2q0 -100 90 -100q47 0 86 46l82 -58q-31 -41 -67 -62q-43 -24 -101 -24q-87 0 -144 57z" />
    <glyph glyph-name="trademark" unicode="&#x2122;" horiz-adv-x="695" 
d="M334 700h91l73 -119l74 119h90v-308h-85v180l-78 -122h-3l-78 122v-180h-84v308zM108 625h-92v75h270v-75h-92v-233h-86v233z" />
    <glyph glyph-name="acute" unicode="&#xb4;" 
d="M235 772l177 -57l-147 -128h-134z" />
    <glyph glyph-name="dieresis" unicode="&#xa8;" 
d="M277 730h165v-143h-165v143zM58 730h165v-143h-165v143z" />
    <glyph glyph-name="AE" unicode="&#xc6;" horiz-adv-x="1063" 
d="M365 700h655v-165h-349v-106h314v-153h-314v-111h354v-165h-543v125h-226l-65 -125h-196zM482 276v265h-12l-136 -265h148z" />
    <glyph glyph-name="Oslash" unicode="&#xd8;" horiz-adv-x="831" 
d="M216 39l-39 -44h-147l100 112q-92 102 -92 241v2q0 152 108 257q109 107 270 107q111 0 198 -53l39 44h147l-99 -113q91 -101 91 -240v-2q0 -152 -108 -257q-109 -107 -270 -107q-109 0 -198 53zM495 524q-36 19 -81 19q-79 0 -130 -57q-50 -55 -50 -134v-2q0 -53 24 -97
zM547 214q50 55 50 134v2q0 54 -24 97l-238 -271q38 -19 81 -19q80 0 131 57z" />
    <glyph glyph-name="plusminus" unicode="&#xb1;" horiz-adv-x="618" 
d="M16 110l121 119q79 -79 170 -79q94 0 94 67v2q0 61 -112 61h-73v146h71q99 0 99 61v2q0 61 -88 61q-39 0 -76 -21q-31 -19 -64 -55l-120 112q52 61 111 91q72 37 166 37q116 0 188 -53q70 -53 70 -134v-2q0 -59 -29 -101q-26 -38 -76 -61q57 -19 88 -55q35 -41 35 -102
v-2q0 -96 -72 -156q-76 -62 -202 -62q-185 0 -301 124z" />
    <glyph glyph-name="yen" unicode="&#xa5;" horiz-adv-x="708" 
d="M258 93h-184v120h184v50h-184v120h138l-208 317h220l132 -230l132 230h216l-209 -317h139v-120h-184v-50h184v-120h-184v-93h-192v93z" />
    <glyph glyph-name="uni00B5" unicode="&#xb5;" horiz-adv-x="831" 
d="M518 0q-54 -13 -104 -13q-161 0 -269 105q-107 104 -107 256v2q0 152 108 257q109 107 270 107t269 -106q107 -104 107 -256v-2q0 -146 -100 -248l175 -180v-10h-259zM545 217q49 53 49 131v2q0 78 -50 132q-52 57 -130 57t-128 -56q-49 -53 -49 -131v-2q0 -78 50 -132
q51 -57 129 -57t129 56z" />
    <glyph glyph-name="pi" unicode="&#x3c0;" horiz-adv-x="830" 
d="M157 93q-104 106 -104 255v2q0 149 105 256q107 108 258 108t257 -107q104 -106 104 -255v-2q0 -149 -105 -256q-107 -108 -258 -108t-257 107zM643 122q92 94 92 228v2q0 134 -91 227q-93 95 -228 95q-136 0 -229 -96q-92 -94 -92 -228v-2q0 -134 91 -227
q93 -95 228 -95q136 0 229 96zM273 549h165q161 0 161 -136v-2q0 -65 -47 -102q-45 -35 -118 -35h-53v-110h-108v385zM430 358q61 0 61 49v2q0 50 -61 50h-49v-101h49z" />
    <glyph glyph-name="ordfeminine" unicode="&#xaa;" horiz-adv-x="390" 
d="M44 488v2q0 93 117 93q40 0 71 -11v4q0 49 -60 49q-36 0 -82 -17l-21 74q56 23 120 23q77 0 114 -37q32 -31 32 -95v-170h-104v32q-33 -38 -87 -38q-100 0 -100 91zM41 347h299v-77h-299v77zM233 512v13q-22 8 -41 8q-47 0 -47 -36v-2q0 -32 36 -32q52 0 52 49z" />
    <glyph glyph-name="ordmasculine" unicode="&#xba;" horiz-adv-x="390" 
d="M79 440q-46 44 -46 108v2q0 65 46 110q47 45 117 45q69 0 115 -45q46 -44 46 -108v-2q0 -65 -46 -110q-47 -45 -117 -45q-69 0 -115 45zM51 347h288v-77h-288v77zM255 548v2q0 67 -61 67q-59 0 -59 -65v-2q0 -66 61 -66q59 0 59 64z" />
    <glyph glyph-name="uni2126" unicode="&#x2126;" horiz-adv-x="808" 
d="M489 389h-64v146h64v15q0 94 46 140q46 47 141 47q74 0 124 -15v-134q-35 11 -71 11q-54 0 -54 -51v-13h124v-146h-121v-389h-189v389zM85 389h-63v149h63v12q0 94 46 140q47 47 141 47q74 0 124 -15v-134q-35 11 -71 11q-54 0 -54 -51v-13h124v-146h-121v-389h-189v389z
" />
    <glyph glyph-name="ae" unicode="&#xe6;" horiz-adv-x="940" 
d="M83 30q-59 45 -59 125v2q0 82 58 127q56 43 154 43q71 0 130 -21v9q0 88 -108 88q-73 0 -149 -30l-39 134q50 21 98 30q55 12 121 12q122 0 183 -61q68 65 169 65q130 0 202 -88q67 -81 67 -208q0 -13 -2 -39h-362q24 -89 117 -89q64 0 120 55l105 -87q-41 -52 -96 -80
q-60 -30 -138 -30q-131 0 -212 81q-50 -38 -102 -58q-57 -22 -115 -22q-87 0 -142 42zM732 315q-11 98 -95 98q-78 0 -93 -98h188zM386 153q-15 35 -19 68q-33 14 -73 14q-87 0 -87 -67v-2q0 -57 70 -57q54 0 109 44z" />
    <glyph glyph-name="oslash" unicode="&#xf8;" horiz-adv-x="656" 
d="M175 25l-28 -30h-133l83 92q-68 77 -68 181v2q0 117 85 199q86 84 215 84q83 0 151 -38l29 31h133l-83 -92q68 -77 68 -182v-2q0 -117 -85 -199q-86 -84 -215 -84q-82 0 -152 38zM372 391q-19 9 -45 9q-53 0 -88 -38q-33 -37 -33 -90v-2q0 -25 10 -52zM417 178
q33 37 33 90v2q0 25 -10 52l-155 -174q21 -8 44 -8q53 0 88 38z" />
    <glyph glyph-name="questiondown" unicode="&#xbf;" horiz-adv-x="540" 
d="M193 700h198v-170h-198v170zM92 45q-70 58 -70 154v2q0 89 56 141q46 44 139 66l11 64h121l26 -167l-9 -9q-157 -14 -157 -80v-1q0 -55 76 -55q71 0 145 66l101 -132q-49 -49 -110 -75q-68 -30 -150 -30q-111 0 -179 56z" />
    <glyph glyph-name="exclamdown" unicode="&#xa1;" horiz-adv-x="324" 
d="M63 700h198v-170h-198v170zM54 85l58 387h100l58 -387v-85h-216v85z" />
    <glyph glyph-name="radical" unicode="&#x221a;" horiz-adv-x="1108" 
d="M489 389h-64v146h64v15q0 94 46 140q46 47 141 47q74 0 124 -15v-134q-35 11 -71 11q-54 0 -54 -51v-13h124v-146h-121v-389h-189v389zM85 389h-63v149h63v12q0 94 46 140q47 47 141 47q74 0 124 -15v-134q-35 11 -71 11q-54 0 -54 -51v-13h124v-146h-121v-389h-189v389z
M863 730h190v-730h-190v730z" />
    <glyph glyph-name="florin" unicode="&#x192;" horiz-adv-x="553" 
d="M25 0v138q29 -6 47 -6q57 0 69 65l23 132h-61v144h86l13 65q31 172 218 172q65 0 110 -13v-140q-36 9 -67 9q-67 0 -78 -63l-5 -30h114v-144h-140l-28 -157q-31 -182 -215 -182q-42 0 -86 10z" />
    <glyph glyph-name="approxequal" unicode="&#x2248;" horiz-adv-x="1108" 
d="M859 730h198v-140h-198v140zM489 389h-64v146h64v15q0 94 46 140q46 47 141 47q74 0 124 -15v-134q-35 11 -71 11q-54 0 -54 -51v-13h124v-146h-121v-389h-189v389zM85 389h-63v149h63v12q0 94 46 140q47 47 141 47q74 0 124 -15v-134q-35 11 -71 11q-54 0 -54 -51v-13
h124v-146h-121v-389h-189v389zM863 541h190v-541h-190v541z" />
    <glyph glyph-name="guillemotleft" unicode="&#xab;" horiz-adv-x="631" 
d="M289 264v8l176 234l136 -67l-130 -171l130 -170l-136 -68zM30 244v48l160 214l137 -67l-130 -171l130 -170l-137 -68z" />
    <glyph glyph-name="guillemotright" unicode="&#xbb;" horiz-adv-x="631" 
d="M305 97l130 171l-130 170l136 68l160 -214v-48l-160 -214zM30 97l130 171l-130 170l137 68l175 -234v-8l-175 -234z" />
    <glyph glyph-name="ellipsis" unicode="&#x2026;" horiz-adv-x="840" 
d="M603 192h194v-192h-194v192zM323 192h194v-192h-194v192zM43 192h194v-192h-194v192z" />
    <glyph glyph-name="uni00A0" unicode="&#xa0;" horiz-adv-x="277" 
 />
    <glyph glyph-name="Agrave" unicode="&#xc0;" horiz-adv-x="795" 
d="M304 705h187l298 -705h-208l-51 125h-270l-50 -125h-204zM474 276l-78 199l-79 -199h157zM196 875l177 57l104 -185h-134z" />
    <glyph glyph-name="Atilde" unicode="&#xc3;" horiz-adv-x="795" 
d="M304 705h187l298 -705h-208l-51 125h-270l-50 -125h-204zM474 276l-78 199l-79 -199h157zM187 765q32 149 124 149q20 0 45 -6q18 -4 44 -13l19 -8l19 -6q19 -6 29 -6q32 0 51 46l91 -25q-32 -149 -124 -149q-20 0 -45 6q-18 4 -43 14l-39 13q-19 6 -29 6q-32 0 -51 -46z
" />
    <glyph glyph-name="Otilde" unicode="&#xd5;" horiz-adv-x="831" 
d="M145 92q-107 104 -107 256v2q0 152 108 257q109 107 270 107t269 -106q107 -104 107 -256v-2q0 -152 -108 -257q-109 -107 -270 -107t-269 106zM545 217q49 53 49 131v2q0 78 -50 132q-52 57 -130 57t-128 -56q-49 -53 -49 -131v-2q0 -78 50 -132q51 -57 129 -57t129 56z
M205 765q32 149 124 149q20 0 45 -6q18 -4 44 -13l19 -8l19 -6q19 -6 29 -6q32 0 51 46l91 -25q-32 -149 -124 -149q-20 0 -45 6q-18 4 -43 14l-39 13q-19 6 -29 6q-32 0 -51 -46z" />
    <glyph glyph-name="OE" unicode="&#x152;" horiz-adv-x="1078" 
d="M433 0q-184 0 -291 97q-104 95 -104 249v2q0 156 105 252q109 100 294 100h598v-165h-349v-106h314v-153h-314v-111h354v-165h-607zM494 169v362h-66q-87 0 -138 -48q-53 -48 -53 -132v-2q0 -83 53 -132q52 -48 138 -48h66z" />
    <glyph glyph-name="oe" unicode="&#x153;" horiz-adv-x="1013" 
d="M113 70q-84 82 -84 198v2q0 117 85 199q86 84 210 84q122 0 200 -81q73 81 189 81q131 0 204 -88q66 -81 66 -208q0 -13 -2 -39h-361q23 -89 116 -89q65 0 121 55l105 -87q-42 -52 -96 -80q-61 -30 -136 -30q-130 0 -208 81q-79 -81 -202 -81q-122 0 -207 83zM805 315
q-11 98 -94 98q-77 0 -94 -98h188zM407 184q30 34 30 84v2q0 50 -32 86t-81 36t-80 -36q-30 -34 -30 -84v-2q0 -50 32 -86t80 -36q50 0 81 36z" />
    <glyph glyph-name="endash" unicode="&#x2013;" horiz-adv-x="528" 
d="M40 394h448v-163h-448v163z" />
    <glyph glyph-name="emdash" unicode="&#x2014;" horiz-adv-x="898" 
d="M40 394h818v-163h-818v163z" />
    <glyph glyph-name="quotedblleft" unicode="&#x201c;" horiz-adv-x="547" 
d="M305 502q0 104 55 154q50 46 148 49l16 -73q-101 -12 -98 -94h74v-195h-195v159zM40 502q0 104 55 154q49 46 148 49l15 -73q-102 -12 -97 -94h74v-195h-195v159z" />
    <glyph glyph-name="quotedblright" unicode="&#x201d;" horiz-adv-x="547" 
d="M289 411q101 11 98 94h-75v195h195v-159q0 -105 -54 -155q-50 -45 -148 -48zM23 411q101 11 98 94h-74v195h195v-159q0 -105 -55 -155q-49 -45 -148 -48z" />
    <glyph glyph-name="quoteleft" unicode="&#x2018;" horiz-adv-x="284" 
d="M40 502q0 106 56 156q49 44 149 47l16 -73q-105 -12 -100 -94h76v-195h-197v159z" />
    <glyph glyph-name="quoteright" unicode="&#x2019;" horiz-adv-x="284" 
d="M23 411q105 11 100 94h-76v195h197v-159q0 -106 -56 -155q-49 -45 -149 -48z" />
    <glyph glyph-name="ydieresis" unicode="&#xff;" horiz-adv-x="626" 
d="M37 -116l59 133q48 -29 83 -29q28 0 44 22l-212 531h199l108 -326l102 326h195l-198 -528q-36 -96 -80 -135q-46 -41 -126 -41q-90 0 -174 47zM339 730h165v-143h-165v143zM120 730h165v-143h-165v143z" />
    <glyph glyph-name="Ydieresis" unicode="&#x178;" horiz-adv-x="723" 
d="M264 262l-266 438h221l144 -255l145 255h217l-266 -435v-265h-195v262zM389 890h165v-143h-165v143zM170 890h165v-143h-165v143z" />
    <glyph glyph-name="fraction" unicode="&#x2044;" horiz-adv-x="501" 
d="M393 758h158l-465 -856h-159z" />
    <glyph glyph-name="currency" unicode="&#xa4;" horiz-adv-x="682" 
d="M222 52q-78 63 -104 171h-81v104h68q-1 5 -1 11v12q0 18 1 27h-68v104h84q28 103 104 166q81 67 197 67q79 0 141 -31q57 -28 99 -82l-123 -115q-49 62 -116 62q-76 0 -109 -70h156v-101h-178q-1 -8 -1 -25v-2q0 -15 1 -23h178v-101h-158q35 -74 115 -74q64 0 118 66
l120 -113q-45 -58 -102 -87q-62 -32 -142 -32q-118 0 -199 66z" />
    <glyph glyph-name="guilsinglleft" unicode="&#x2039;" horiz-adv-x="357" 
d="M30 244v48l160 214l137 -67l-130 -171l130 -170l-137 -68z" />
    <glyph glyph-name="guilsinglright" unicode="&#x203a;" horiz-adv-x="357" 
d="M30 97l130 171l-130 170l137 68l160 -214v-48l-160 -214z" />
    <glyph glyph-name="uniFB01" unicode="&#xfb01;" horiz-adv-x="704" 
d="M455 730h198v-140h-198v140zM85 550q0 94 46 140q47 47 141 47q74 0 124 -15v-134q-35 11 -71 11q-54 0 -54 -51v-13h124v-146h-121v-389h-189v389h-63v149h63v12zM459 541h190v-541h-190v541z" />
    <glyph glyph-name="uniFB02" unicode="&#xfb02;" horiz-adv-x="704" 
d="M85 389h-63v149h63v12q0 94 46 140q47 47 141 47q74 0 124 -15v-134q-35 11 -71 11q-54 0 -54 -51v-13h124v-146h-121v-389h-189v389zM459 730h190v-730h-190v730z" />
    <glyph glyph-name="daggerdbl" unicode="&#x2021;" horiz-adv-x="430" 
d="M174 129l-124 -13v104l126 -13l-13 143l13 143l-126 -13v104l124 -13l-15 129h112l-15 -129l124 13v-104l-126 13l13 -143l-13 -143l126 13v-104l-124 13l15 -129h-112z" />
    <glyph glyph-name="periodcentered" unicode="&#xb7;" horiz-adv-x="284" 
d="M43 410h198v-195h-198v195z" />
    <glyph glyph-name="quotesinglbase" unicode="&#x201a;" horiz-adv-x="284" 
d="M20 -94q103 12 100 94h-77v195h198v-159q0 -106 -56 -155q-50 -45 -150 -48z" />
    <glyph glyph-name="quotedblbase" unicode="&#x201e;" horiz-adv-x="546" 
d="M286 -94q102 12 97 94h-74v195h195v-159q0 -105 -55 -155q-49 -45 -148 -48zM20 -94q102 12 97 94h-74v195h195v-159q0 -105 -55 -155q-49 -45 -148 -48z" />
    <glyph glyph-name="perthousand" unicode="&#x2030;" horiz-adv-x="1295" 
d="M85 388q-50 53 -50 132v2q0 79 49 133q51 55 132 55q80 0 131 -55q49 -53 49 -132v-2q0 -79 -50 -133q-52 -55 -131 -55t-130 55zM652 700h135l-540 -700h-135zM949 45q-50 54 -50 132v2q0 79 49 133q51 55 132 55q80 0 131 -55q49 -53 49 -132v-2q0 -78 -50 -132
q-52 -56 -131 -56t-130 55zM553 45q-50 54 -50 132v2q0 79 49 133q51 55 132 55q80 0 131 -55q49 -53 49 -132v-2q0 -78 -50 -132q-52 -56 -131 -56t-130 55zM274 520v2q0 78 -59 78q-58 0 -58 -77v-2q0 -78 59 -78q58 0 58 77zM1138 177v2q0 78 -59 78q-58 0 -58 -77v-2
q0 -78 59 -78q58 0 58 77zM742 177v2q0 78 -59 78q-58 0 -58 -77v-2q0 -78 59 -78q58 0 58 77z" />
    <glyph glyph-name="Acircumflex" unicode="&#xc2;" horiz-adv-x="795" 
d="M304 705h187l298 -705h-208l-51 125h-270l-50 -125h-204zM474 276l-78 199l-79 -199h157zM321 912h154l128 -165h-122l-84 61l-84 -61h-120z" />
    <glyph glyph-name="Ecircumflex" unicode="&#xca;" horiz-adv-x="667" 
d="M62 700h563v-165h-371v-106h336v-153h-336v-111h376v-165h-568v700zM268 912h154l128 -165h-122l-84 61l-84 -61h-120z" />
    <glyph glyph-name="Aacute" unicode="&#xc1;" horiz-adv-x="795" 
d="M304 705h187l298 -705h-208l-51 125h-270l-50 -125h-204zM474 276l-78 199l-79 -199h157zM423 932l177 -57l-147 -128h-134z" />
    <glyph glyph-name="Edieresis" unicode="&#xcb;" horiz-adv-x="667" 
d="M62 700h563v-165h-371v-106h336v-153h-336v-111h376v-165h-568v700zM372 890h165v-143h-165v143zM153 890h165v-143h-165v143z" />
    <glyph glyph-name="Egrave" unicode="&#xc8;" horiz-adv-x="667" 
d="M62 700h563v-165h-371v-106h336v-153h-336v-111h376v-165h-568v700zM166 875l177 57l104 -185h-134z" />
    <glyph glyph-name="Iacute" unicode="&#xcd;" horiz-adv-x="327" 
d="M66 700h195v-700h-195v700zM191 932l177 -57l-147 -128h-134z" />
    <glyph glyph-name="Icircumflex" unicode="&#xce;" horiz-adv-x="327" 
d="M66 700h195v-700h-195v700zM87 912h154l128 -165h-122l-84 61l-84 -61h-121z" />
    <glyph glyph-name="Idieresis" unicode="&#xcf;" horiz-adv-x="327" 
d="M66 700h195v-700h-195v700zM191 890h165v-143h-165v143zM-29 890h166v-143h-166v143z" />
    <glyph glyph-name="Igrave" unicode="&#xcc;" horiz-adv-x="327" 
d="M66 700h195v-700h-195v700zM-41 875l177 57l104 -185h-134z" />
    <glyph glyph-name="Oacute" unicode="&#xd3;" horiz-adv-x="831" 
d="M145 92q-107 104 -107 256v2q0 152 108 257q109 107 270 107t269 -106q107 -104 107 -256v-2q0 -152 -108 -257q-109 -107 -270 -107t-269 106zM545 217q49 53 49 131v2q0 78 -50 132q-52 57 -130 57t-128 -56q-49 -53 -49 -131v-2q0 -78 50 -132q51 -57 129 -57t129 56z
M451 932l177 -57l-147 -128h-134z" />
    <glyph glyph-name="Ocircumflex" unicode="&#xd4;" horiz-adv-x="831" 
d="M145 92q-107 104 -107 256v2q0 152 108 257q109 107 270 107t269 -106q107 -104 107 -256v-2q0 -152 -108 -257q-109 -107 -270 -107t-269 106zM545 217q49 53 49 131v2q0 78 -50 132q-52 57 -130 57t-128 -56q-49 -53 -49 -131v-2q0 -78 50 -132q51 -57 129 -57t129 56z
M339 910h154l128 -165h-122l-84 61l-84 -61h-120z" />
    <glyph glyph-name="uniF8FF" unicode="&#xf8ff;" horiz-adv-x="967" 
d="M101 0v750h767v-750h-767zM853 -104l-3 20l-10 -21h-2l-10 21l-3 -20h-6l6 34h1l13 -26l13 26h1l6 -34h-6zM789 -105q-17 0 -17 17q0 18 18 18q16 0 16 -17q0 -18 -17 -18zM757 -102q-3 -3 -10 -3q-18 0 -18 17q0 18 18 18q7 0 11 -3l-2 -5q-3 3 -9 3q-12 0 -12 -12
q0 -13 13 -13q4 0 10 4zM689 -90v-14h-6v14l-14 19l6 1l11 -15l9 14h7zM650 -104v15h-16v-15h-6v33h6v-13h16v13h6v-33h-6zM595 -94v-10h-6v33q12 1 18 -2q5 -3 5 -9q0 -12 -17 -12zM570 -104l-4 8h-14l-3 -8h-6l15 34h2l16 -34h-6zM527 -104l-8 11h-5v-11h-6v33q12 1 18 -2
q5 -3 5 -8q0 -6 -7 -10l10 -13h-7zM491 -101q-6 -4 -13 -4q-18 0 -18 17q0 18 19 18q6 0 12 -4l-2 -5q-4 4 -11 4q-12 0 -12 -13q0 -12 13 -12q2 0 6 2v7h-9v5h15v-15zM430 -105q-17 0 -17 17q0 18 18 18q16 0 16 -17q0 -18 -17 -18zM383 -94v-10h-6v33q12 1 18 -2
q5 -3 5 -9q0 -12 -17 -12zM351 -90v-14h-6v14l-14 19l6 1l11 -15l9 14h7zM323 -76h-12v-28h-6v28h-12v5h30v-5zM255 -105h-1l-11 23l-10 -23h-1l-12 34l6 1l7 -23l10 23h1l10 -23l7 22h6zM199 -105h-1l-11 23l-10 -23h-1l-12 34l6 1l7 -23l10 23h1l10 -23l7 22h6zM143 -105
h-1l-11 23l-10 -23h-1l-12 34l6 1l7 -23l10 23h1l10 -23l7 22h6zM712 -105q-4 0 -4 4t4 4t4 -4t-4 -4zM280 -105q-4 0 -4 4t4 4t4 -4t-4 -4zM559 686v5q0 5 -1 7q-2 -1 -17 -1t-18 1l-1 -12h2q0 1 3 5t7 4q3 0 3 -3v-23q0 -4 -2 -5q-3 -1 -3 0v-2h17v2q0 -1 -2 0q-3 1 -3 5
v23q0 3 3 3q4 0 8 -4l2 -5h2zM504 664q0 -1 -3 0t-3 5v21q0 4 3 5t3 0v2h-18v-2q0 1 3 0q2 -1 2 -5v-9h-17v9q0 4 3 5q2 1 2 0v2h-17v-2q0 1 3 0q2 -1 2 -5v-21q0 -3 -2 -4q-3 -2 -3 -1v-2h17v2q0 -1 -2 1q-3 1 -3 4v10h17v-10q0 -4 -2 -5q-3 -1 -3 0v-2h18v2zM439 664
q0 -1 -2 0q-3 1 -3 5v21q0 4 3 5q2 1 2 0v2h-29l-2 -10l2 -1q0 1 2 4q3 4 7 4h4q4 0 4 -3v-10h-4q-4 0 -5 3q-1 1 -1 2h-2v-13h2q0 2 1 3q1 3 5 3h4v-11q0 -3 -4 -3h-4q-4 0 -8 5q-2 3 -2 4l-2 -1l2 -11h30v2zM827 624h-685v-6h685v6zM659 578q-23 0 -23 -22q0 -38 37 -38
q23 0 23 22q0 38 -37 38zM575 554q5 3 5 9q0 5 -5 10q-6 5 -16 5q-13 0 -13 -11q0 -6 5 -6q4 0 4 3q0 2 -1 3q-2 2 -2 3q0 5 7 5q10 0 10 -12q0 -4 -2 -6q-16 2 -16 -6q0 -6 8 -6q6 0 11 5q6 -4 6 -15q0 -14 -12 -14t-12 9q0 3 3 3l2 -1q1 -1 3 -1q4 0 4 5t-7 5q-9 0 -9 -10
q0 -13 16 -13q25 0 25 19q0 12 -14 17zM281 554q5 3 5 9q0 5 -5 10q-6 5 -16 5q-13 0 -13 -11q0 -6 5 -6q4 0 4 3q0 2 -1 3q-2 2 -2 3q0 5 7 5q10 0 10 -12q0 -4 -2 -6q-16 2 -16 -6q0 -6 8 -6q6 0 11 5q6 -4 6 -15q0 -14 -12 -14t-12 9q0 3 3 3l2 -1q1 -1 3 -1q4 0 4 5
t-7 5q-9 0 -9 -10q0 -13 16 -13q25 0 25 19q0 12 -14 17zM820 522q0 -1 -4 1q-5 1 -6 7l-7 35q-1 6 3 7q4 2 4 1l-1 3h-28l1 -3q0 1 4 -1q4 -1 5 -7l3 -15h-24l-3 15q-1 6 3 7q4 2 4 1l-1 3h-29l1 -3q0 1 4 -1q5 -1 6 -7l7 -35q1 -6 -3 -7q-4 -2 -4 -1l1 -3h29l-1 3
q0 -1 -4 1q-5 1 -6 7l-3 16h24l3 -16q1 -6 -3 -7q-4 -2 -4 -1l1 -3h29zM497 522q0 -1 -4 1q-5 1 -6 7l-7 35q-1 6 3 7q4 2 4 1l-1 3h-45q1 -2 0 -10v-7h4l1 7q3 6 12 6h4q5 0 6 -6l3 -16h-4q-6 0 -9 5q-3 3 -3 4h-3l5 -23h3v2q0 2 1 4q1 5 7 5h4l3 -17q1 -6 -3 -7
q-4 -2 -4 -1l1 -3h29zM202 522q0 -1 -4 1q-5 1 -6 7l-7 35q-1 6 3 7q4 2 4 1l-1 3h-27q-20 0 -20 -15q0 -13 19 -15l-9 -16q-3 -6 -9 -7q-5 -2 -5 -1l1 -3h19l12 23q2 3 5 3l3 -15q1 -6 -3 -7q-4 -2 -4 -1l1 -3h29zM387 530q-3 2 -4 10q-1 2 -1 8l-2 9q-4 21 -22 21
q-5 0 -9 -3q-4 -4 -4 -7q0 -5 5 -5q4 0 4 6t5 6q4 0 6 -5q2 -3 3 -12q3 -20 12 -28q-5 0 -9 -2q-2 -1 -5 -4q0 -1 -2 -3q-2 -1 -2 -2q-3 -2 -5 -2q-5 0 -5 4q0 2 1 3t1 2q0 5 -5 5t-5 -7q0 -4 5 -8t10 -4q6 0 10 2q3 1 5 5l4 4q2 2 6 2q4 -7 12 -7q4 0 4 3q0 8 -13 9z
M827 481h-685v-6h685v6zM827 440h-147v-62h36v28h11v-65h-14v-33h81v33h-14v65h11v-28h36v62zM648 440h-81v-34h11l-15 -23l-15 23h10v34h-62v-34h12l37 -46v-19h-14v-33h81v33h-15v20l37 45h14v34zM458 341h-14v65h14v34h-96q-47 0 -47 -40t47 -40h30v-19h-15v-33h81v33z
M283 341h-14v65h14v34h-141v-62h41v28h33v-20h-24v-24h24v-21h-33v28h-41v-61h141v33zM827 277h-685v-6h685v6zM691 230q-23 0 -23 -22q0 -38 37 -38q23 0 23 22q0 38 -37 38zM203 217q-7 13 -18 13q-15 0 -14 -23q-7 23 -21 23q-12 0 -12 -12l3 -1q0 6 8 6q16 0 24 -33
q3 -11 -1 -14l-5 -1l1 -4h28l-1 4q0 -1 -4 0q-4 2 -6 9q-5 17 -5 25q0 13 9 13q4 0 7 -2l5 -5zM822 174q0 -1 -4 1q-5 1 -6 7l-7 35q-1 6 3 7q4 2 4 1l-1 3h-45q1 -2 0 -10v-7h4l1 7q3 6 12 6h4q5 0 6 -6l3 -16h-4q-6 0 -9 5q-3 3 -3 4h-3l5 -23h3v2q0 2 1 4q1 5 7 5h4
l3 -17q1 -6 -3 -7q-4 -2 -4 -1l1 -3h29zM620 228h-29l1 -3q0 1 4 -1q5 -2 6 -8l5 -21q5 -20 -11 -20q-14 0 -20 22l-4 19q-1 7 3 9q4 1 4 0v3h-24l1 -3q0 1 5 -1t6 -8l4 -19q2 -10 8 -18q8 -9 20 -9q15 0 19 8q1 3 1 8l-6 30q-2 7 3 9t5 0zM522 174q0 -1 -3 1q-4 3 -6 9
l-7 32q-1 6 3 8q5 2 5 1l-1 3h-14l-29 -42l-5 30q-1 6 3 8t4 1l-1 3h-21l1 -3q0 1 4 -1t5 -8l8 -45l3 -1l30 44l6 -30q1 -7 -2 -9q-4 -3 -4 -1l1 -3h21zM413 175q0 -1 -4 0q-4 2 -6 9l-8 31q-3 9 8 10l-1 3h-30q-25 0 -25 -22q0 -35 35 -35h32zM306 174q0 -1 -4 1q-5 1 -6 7
l-7 35q-1 6 3 7q4 2 4 1l-1 3h-27q-20 0 -20 -15q0 -13 19 -15l-9 -16q-3 -6 -9 -7q-5 -2 -5 -1l1 -3h19l12 23q2 3 5 3l3 -15q1 -6 -3 -7q-4 -2 -4 -1l1 -3h29zM827 133h-685v-6h685v6zM694 48l-3 1q-3 2 -3 4v20q0 2 3 4l3 2v2h-10l-24 -26v18q0 3 3 5t3 1v2h-15v-2
q0 1 3 -1t3 -5v-28h3l25 28v-20q0 -2 -2 -4l-3 -1v-2h14v2zM633 48q0 -1 -2 0q-3 1 -3 5v21q0 4 3 5q2 1 2 0v2h-29l-2 -10l2 -1q0 1 2 4q3 4 7 4h4q4 0 4 -3v-10h-4q-4 0 -5 3q-1 1 -1 2h-2v-13h2q0 2 1 3q1 3 5 3h4v-11q0 -3 -4 -3h-4q-4 0 -8 5q-2 3 -2 4l-2 -1l2 -11h30
v2zM568 81v-2q0 1 2 -1q1 -1 0 -4l-9 -19l-5 10l4 8q1 3 4 5l2 1v2h-26l3 -3q3 -1 5 -5l3 -5l-7 -13l-8 18q-1 3 0 5q2 2 2 1v2h-13v-2l2 -1q3 -2 4 -5l13 -27h2l8 16l9 -16h1l12 27q2 4 5 5q2 2 2 1v2h-15zM480 81h-15v-2q0 1 2 -1q1 -1 -1 -4l-6 -9l-6 9q-2 3 0 4q3 2 3 1
v2h-15v-2l3 -1q3 -1 5 -4l8 -12v-8q0 -4 -2 -5q-3 -2 -3 -1v-2h17v2q0 -1 -2 1q-3 1 -3 5v8l8 12q2 3 5 4l2 1v2zM405 82q-20 0 -20 -18q0 -19 20 -19t20 19q0 18 -20 18zM364 48q0 -1 -2 1q-3 1 -3 4v20q0 4 3 5q2 2 2 1v2h-18q-13 0 -13 -9q0 -5 9 -9l-7 -10q-2 -3 -5 -4
l-3 -1v-2h11l7 12q3 4 7 4v-9q0 -3 -2 -4q-3 -2 -3 -1v-2h17v2zM309 48q0 -1 -3 1t-3 5v20q0 3 3 4q3 2 3 1v2h-18v-2q0 1 3 -1q3 -1 3 -4v-9q-2 0 -4 2l-8 8q-2 2 -1 3q2 2 2 1v2h-14v-2l3 -1q3 -1 5 -3l10 -9l-13 -13l-7 -5v-2h17v2q0 -1 -2 1q-2 1 0 4l8 8q2 2 4 2v-9
q0 -4 -3 -5q-3 -2 -3 -1v-2h18v2zM595 -76v-13q11 0 11 6q0 8 -11 7zM514 -76v-12q11 -1 11 6q0 8 -11 6zM383 -76v-13q11 0 11 6q0 8 -11 7zM559 -80l-5 -12h10zM789 -75q-11 0 -11 -12q0 -13 11 -13t11 12q0 13 -11 13zM430 -75q-11 0 -11 -12q0 -13 11 -13t11 12
q0 13 -11 13zM171 548q-7 0 -12 5q-3 5 -3 10q0 9 8 9t9 -5l3 -19h-5zM559 549q-4 0 -4 2q0 3 4 3q5 0 7 -1q-3 -4 -7 -4zM265 549q-4 0 -4 2q0 3 4 3q5 0 7 -1q-3 -4 -7 -4zM673 522q-25 0 -25 38q0 14 11 14q25 0 25 -39q0 -13 -11 -13zM381 384q-13 0 -13 11t13 11h11
v-22h-11zM275 200q-7 0 -12 5q-3 5 -3 10q0 9 8 9t9 -5l3 -19h-5zM705 174q-25 0 -25 38q0 14 11 14q25 0 25 -39q0 -13 -11 -13zM393 182q0 -7 -4 -7h-5q-26 0 -26 32q0 17 14 17h6q4 -1 6 -7zM553 70q-5 9 0 9t0 -9zM352 64h-3q-8 0 -8 8q0 6 7 6q4 0 4 -4v-10zM405 47
q-12 0 -12 17q0 16 12 16t12 -16q0 -17 -12 -17z" />
    <glyph glyph-name="Ograve" unicode="&#xd2;" horiz-adv-x="831" 
d="M145 92q-107 104 -107 256v2q0 152 108 257q109 107 270 107t269 -106q107 -104 107 -256v-2q0 -152 -108 -257q-109 -107 -270 -107t-269 106zM545 217q49 53 49 131v2q0 78 -50 132q-52 57 -130 57t-128 -56q-49 -53 -49 -131v-2q0 -78 50 -132q51 -57 129 -57t129 56z
M204 875l177 57l104 -185h-134z" />
    <glyph glyph-name="Uacute" unicode="&#xda;" horiz-adv-x="758" 
d="M140 65q-87 82 -87 242v393h197v-389q0 -149 129 -149t129 144v394h197v-388q0 -164 -89 -247q-84 -78 -239 -78q-154 0 -237 78zM405 927l177 -57l-147 -128h-134z" />
    <glyph glyph-name="Ucircumflex" unicode="&#xdb;" horiz-adv-x="758" 
d="M140 65q-87 82 -87 242v393h197v-389q0 -149 129 -149t129 144v394h197v-388q0 -164 -89 -247q-84 -78 -239 -78q-154 0 -237 78zM302 912h154l128 -165h-122l-84 61l-84 -61h-120z" />
    <glyph glyph-name="Ugrave" unicode="&#xd9;" horiz-adv-x="758" 
d="M140 65q-87 82 -87 242v393h197v-389q0 -149 129 -149t129 144v394h197v-388q0 -164 -89 -247q-84 -78 -239 -78q-154 0 -237 78zM176 870l177 57l104 -185h-134z" />
    <glyph glyph-name="dotlessi" unicode="&#x131;" horiz-adv-x="300" 
d="M55 541h190v-541h-190v541z" />
    <glyph glyph-name="circumflex" unicode="&#x2c6;" 
d="M173 752h154l128 -165h-122l-84 61l-84 -61h-120z" />
    <glyph glyph-name="tilde" unicode="&#x2dc;" 
d="M39 605q32 149 124 149q20 0 45 -6q18 -4 44 -13l19 -8l19 -6q19 -6 29 -6q32 0 51 46l91 -25q-32 -149 -124 -149q-20 0 -45 6q-18 4 -43 14l-39 13q-19 6 -29 6q-32 0 -51 -46z" />
    <glyph glyph-name="macron" unicode="&#xaf;" 
d="M62 708h376v-116h-376v116z" />
    <glyph glyph-name="breve" unicode="&#x2d8;" 
d="M53 752h111q20 -58 86 -58t86 58h111q-14 -167 -197 -167t-197 167z" />
    <glyph glyph-name="dotaccent" unicode="&#x2d9;" 
d="M165 730h170v-143h-170v143z" />
    <glyph glyph-name="ring" unicode="&#x2da;" 
d="M157 629q-40 38 -40 89v2q0 51 40 89q40 37 93 37t93 -37q40 -38 40 -89v-2q0 -51 -40 -89t-93 -38t-93 38zM317 718v2q0 65 -67 65t-67 -65v-2q0 -66 67 -66t67 66z" />
    <glyph glyph-name="cedilla" unicode="&#xb8;" 
d="M109 -109l92 124h125l-66 -188z" />
    <glyph glyph-name="hungarumlaut" unicode="&#x2dd;" 
d="M129 772l156 -54l30 54l166 -57l-143 -127h-123l59 108l-120 -108h-124z" />
    <glyph glyph-name="ogonek" unicode="&#x2db;" 
d="M381 -164q-223 -23 -223 106q0 34 19 68h122q-5 -18 -5 -34q0 -57 87 -58v-82z" />
    <glyph glyph-name="caron" unicode="&#x2c7;" 
d="M45 752h122l84 -61l84 61h120l-128 -165h-154z" />
    </font>
</defs>
</svg>
